<svg xmlns="http://www.w3.org/2000/svg" viewBox="48.87 36.978 297.452 86.4429"><path fill="#fff" fill-rule="evenodd" d="M110.822 39.863c3.554-1.647 7.425-2.591 11.325-2.885 2.703.1 5.41.087 8.113.026 3.131.134 6.225.797 9.203 1.748.39.167 1.089.268.933.87.012 2.585.015 5.176-.019 7.761-.594-.014-1.193-.02-1.788-.034-1.685-3.81-4.871-7.131-9.006-8.162-4.168-.997-8.793-.475-12.504 1.728-3.885 2.276-6.231 6.856-5.833 11.342.494 4.761 3.688 9.033 7.916 11.182 4.142 2.096 9.191 2.169 13.485.475 3.584-1.433 6.321-4.432 8.087-7.8.558.1 1.116.201 1.678.301-.967 2.491-2.213 4.854-3.269 7.305-.324.656-.547 1.553-1.42 1.64-7.154 2.116-14.896 2.264-22.131.442-4.379-1.171-8.797-3.187-11.634-6.856-2.647-3.388-2.989-8.296-1.037-12.092 1.651-3.221 4.689-5.477 7.901-6.991Zm119.828.556c.454-1.801 2.688-2.062 4.194-1.6 2.916.924 5.752 2.33 8.058 4.359-3.198.013-6.433.134-9.604-.335-1.186-.194-3.123-.85-2.648-2.424Zm-77.843 2.27c1.815-.462 3.216-1.701 4.64-2.826.19-.02.565-.066.756-.093 3.554 7.278 7.146 14.536 10.745 21.787.766 1.487 1.654 3.228 3.417 3.676 1.364.435 3.324.435 4.064-1.031.762-1.533.799-3.301.896-4.975-.004-3.783.045-7.572-.026-11.356-.116-1.305-.302-3.14-1.841-3.508-1.432-.188-2.885-.034-4.313-.261.015-.255.044-.777.06-1.038 9.313 0 18.624.013 27.938 0-.406 2.156-.945 4.292-1.383 6.441-.532-.02-1.06-.047-1.588-.08-.119-1.835-1.294-3.556-3.068-4.131-3.234-1.139-6.722-.543-10.075-.723-.067 2.966-.023 5.932-.023 8.891 2.008-.006 4.015.041 6.023-.02 1.588-.107 3.362-.221 4.566-1.406.897-.723.974-2.437 2.436-2.27-.216 3.288-.339 6.582-.223 9.876-.272-.006-.818-.026-1.09-.033-.539-1.634-1.614-3.274-3.424-3.609-2.725-.536-5.525-.241-8.281-.328.131 2.504-.479 5.236.692 7.566 1.462 2.169 4.41 2.149 6.748 2.216.004.415.008.837.012 1.252-10.612.007-21.22-.02-31.831.014-.008-.255-.023-.757-.03-1.005 1.294-.288 2.867-.281 3.796-1.366.443-1.191-.212-2.403-.658-3.481-.666-1.366-1.264-2.766-2.038-4.071-3.461-.174-6.945-.074-10.411-.04-.896 2.303-2.331 4.512-2.442 7.037.468 1.955 3.03 1.566 4.558 1.888.008.254.026.763.034 1.018-4.436-.02-8.875.053-13.311-.027l-.294-.141c.041-.207.115-.629.156-.843 1.625-.429 3.621-.703 4.476-2.377 3.607-6.502 7.184-13.01 10.768-19.525-.107-.274-.323-.823-.431-1.098Zm1.477 3.268c-1.34 2.879-2.756 5.724-4.079 8.61 2.806.014 5.618.034 8.425-.013-1.391-2.893-2.8-5.779-4.346-8.597Zm45.375-2.92c9.303.047 18.61.06 27.916-.006-.379 2.122-.825 4.238-1.367 6.314-.633.16-1.499.14-1.715.91-.216 3.12-.454 6.254-.182 9.374-.398-.013-.792-.027-1.186-.04-.45-1.587-1.487-3.154-3.191-3.529-2.766-.656-5.64-.241-8.451-.415.023 2.417-.36 4.948.488 7.251 1.305 2.518 4.569 2.485 7.023 2.572-.004.408-.004.816-.004 1.218-6.518.04-13.039 0-19.558.02-.014-.308-.048-.93-.063-1.238 1.618-.141 3.373-.128 4.796-1.011 1.35-.978 1.455-2.799 1.548-4.326.033-4.104.041-8.215 0-12.313-.078-1.272-.287-2.953-1.681-3.422-1.454-.254-2.953-.067-4.418-.261.012-.274.034-.823.045-1.098Zm11.787 1.547c-.014 2.946.008 5.899-.014 8.852 2.948-.027 5.956.294 8.849-.389 1.528-.375 2.48-1.707 3.141-3.033.465-.201.93-.415 1.302-.777-.354-1.647-1.305-3.274-2.968-3.863-3.29-1.245-6.878-.623-10.31-.79Zm16.17.904c8.559-.04 17.115-.014 25.674-.02-.353 1.948-.781 3.877-1.085 5.825-.529-.094-1.525.308-1.584-.489-.261-1.473-1.399-2.611-2.77-3.113-2.96-1.152-6.195-.744-9.292-.851-.026 2.732-.067 5.464.022 8.189 2.636-.107 5.317.134 7.912-.415 1.458-.355 2.373-1.62 2.945-2.926.238-.007.71-.033.948-.047-.134 3-.39 5.999-.148 8.999-1.279.288-1.35-1.091-1.901-1.841-.758-1.185-2.205-1.641-3.536-1.734-2.093-.134-4.19-.148-6.283-.101.104 2.042-.156 4.105.168 6.133.472 1.868 2.676 2.163 4.29 2.277 3.239.181 6.983-.107 9.34-2.618.852-.784 1.089-1.975 1.755-2.873.331 0 .993-.006 1.324-.013-.383 2.263-1.116 4.433-1.662 6.649-8.92.033-17.84.04-26.756-.007.029-.241.093-.723.126-.957 1.651-.241 3.481-.168 4.934-1.105 1.272-1.051 1.134-2.873 1.275-4.359.016-3.334.064-6.682-.022-10.017-.119-1.205-.152-2.872-1.498-3.388-1.32-.341-2.718.02-4.042-.308-.033-.221-.1-.669-.134-.89Zm109.909 15.353c-.116-2.625 2.547-4.821 5.101-4.299 1.819.295 3.588 1.895 3.395 3.857-.086.02-.261.06-.346.08-.409-1.781-1.9-3.421-3.844-3.307-2.54-.114-4.418 2.852-3.351 5.129.777 2.082 3.592 2.905 5.407 1.653 1.008-.582 1.446-1.707 1.784-2.758l.197-.02c.562 1.955-1.42 3.669-3.208 3.977-2.562.562-5.269-1.681-5.135-4.312Zm2.506-2.538c1.063.034 2.145-.087 3.198.107 1.126.482.877 2.036-.045 2.605.926.362.647 1.513.762 2.283-1.167.268-1.004-.81-1.186-1.573-.323-.643-1.175-.389-1.736-.523-.019.69-.03 1.38-.041 2.069h-.923c-.041-1.66-.018-3.314-.029-4.968Zm.967.784c.004.368.01 1.111.014 1.479.726-.067 1.908.228 2.075-.783-.186-1.011-1.402-.569-2.089-.696ZM48.87 59.046c14.364.007 28.726.007 43.09 0-.004.677-.004 1.353-.011 2.029-3.183.596-6.474.67-9.589 1.614-1.566.442-3.224 1.567-3.325 3.348-.193 2.819 1.242 5.417 2.648 7.76 6.484 10.606 12.999 21.202 19.449 31.832 1.767-2.867 3.287-5.875 4.957-8.797 2.543-4.669 5.328-9.242 7.298-14.19.525-1.5 1.164-3.08.915-4.687-.275-1.48-1.841-2.109-3.175-2.29-2.923-.395-5.882-.402-8.816-.676-.011-.67-.022-1.346-.03-2.016 6.117-.12 12.237-.026 18.353-.06 20.509.007 41.019-.013 61.524.014-.565 4.057-1.152 8.115-1.666 12.179-1.044.007-2.089-.007-3.13-.047.059-2.41-.811-4.935-2.793-6.408-2.978-2.243-6.885-2.457-10.466-2.678-5.217-.114-10.433.054-15.65.013-.004 5.839-.022 11.678.007 17.516 3.741-.027 7.481.007 11.222-.013 3.123-.094 6.384-.348 9.184-1.862 2.074-1.064 3.521-3.053 4.291-5.222.814-.034 1.628-.054 2.446-.074-.428 6.22-.773 12.468-.342 18.703-.877-.007-1.747-.011-2.617-.015-.618-2.16-1.819-4.261-3.845-5.365-2.763-1.562-6.046-1.569-9.128-1.706-3.74-.034-7.477-.008-11.218-.012 0 3.748-.022 7.496.003 11.243.06 2.499.659 5.374 2.927 6.805 2.915 1.796 6.477 1.852 9.79 2.012 5.848.152 12.14-.495 16.991-4.061 3.068-2.238 5.143-5.607 6.247-9.199.918-.047 1.844-.063 2.766-.085-1.327 5.603-2.952 11.136-4.436 16.702-20.725-.008-41.446-.041-62.171.015-.029-.55-.055-1.101-.081-1.651 2.892-.413 5.837-.591 8.656-1.409 1.532-.443 3.012-1.339 3.778-2.785 1.345-2.506 1.349-5.44 1.487-8.214.029-6.443.004-12.887.01-19.331-.004-3.193.049-6.401-.315-9.588-.16-.81-.294-1.942-1.227-2.223-2.432-.401-5.109.154-6.964 1.848-2.44 2.203-4.176 5.042-6.005 7.74-7.641 11.832-15.133 23.763-22.777 35.594-1.161-.056-2.324-.003-3.477-.133-.64-.748-1.056-1.652-1.562-2.488-9.6-16.282-19.219-32.551-28.812-48.841-1.439-2.424-3.197-4.821-5.722-6.2-2.699-1.447-5.789-1.768-8.689-2.618v-2.023Zm231.191 3.563c8.273-1.982 16.869-2.431 25.335-1.768 7.534.623 15.055 2.163 22.001 5.202 5.365 2.384 10.462 5.739 14.028 10.479 3.049 3.93 4.692 8.845 4.897 13.807v2.028c-.256 4.133-1.369 8.245-3.529 11.796-3.019 5.068-7.692 8.972-12.831 11.768-7.102 3.866-15.085 5.856-23.082 6.711-8.351.829-16.844.506-25.053-1.275-6.366-1.398-12.597-3.704-18.025-7.355-4.165-2.803-7.838-6.477-10.162-10.957-3.317-6.317-3.723-14.102-1.052-20.718 1.877-4.647 5.246-8.563 9.228-11.55 5.38-4.037 11.742-6.588 18.245-8.168Zm13.284 2.223c-7.008.595-13.831 4.111-17.85 9.969-3.804 5.397-5.421 12.267-4.521 18.802.996 7.72 4.923 15.179 11.199 19.882 5.026 3.823 11.418 5.574 17.683 5.514 5.693.045 11.534-1.39 16.196-4.759 5.21-3.721 8.634-9.619 9.835-15.858 2.209-10.765-2.569-22.67-11.738-28.776-6.046-4.098-13.62-5.437-20.804-4.774Zm-108.079 7.84c11.549-.027 23.098-.007 34.643-.007 5.756.188 11.578.476 17.147 2.063 3.016.89 6.098 2.203 8.169 4.673 2.03 2.377 2.406 5.886 1.347 8.772-.792 2.135-2.451 3.829-4.321 5.068-2.71 1.769-5.849 2.773-9.02 3.331 3.108 4.934 7.086 9.288 11.463 13.124 6.774 5.86 14.943 10.237 23.781 11.947-.104.554-.205 1.112-.301 1.666-1.837-.06-3.67.126-5.503.111-7.183-.487-14.508-.907-21.368-3.279-3.536-1.179-6.496-3.558-9.117-6.139-2.941-2.93-5.547-6.187-7.812-9.663-1.242-1.8-2.528-3.875-4.756-4.525-2.349-.673-4.814-.781-7.231-1.056-.015 3.342-.045 6.685.018 10.028.182 2.446.138 5.06 1.372 7.265.937 1.617 2.819 2.297 4.562 2.61 3.031.52 6.11.68 9.174.903.018.57.033 1.139.051 1.707-14.27.007-28.544-.007-42.818.007.003-.702.015-1.401.026-2.1 2.796-.38 5.629-.588 8.37-1.29 1.721-.435 3.357-1.487 4.146-3.124 1.126-2.298 1.264-4.919 1.346-7.432.003-7.82.022-15.638-.008-23.451-.078-2.833-.748-6.274-3.603-7.58-3.015-1.299-6.387-1.332-9.615-1.547-.059-.689-.108-1.386-.142-2.082Zm27.106 3.234v20.785c2.904-.235 5.823-.517 8.648-1.261 2.949-.762 5.964-1.908 8.11-4.157 2.703-2.779 2.918-7.653.323-10.573-1.784-2.062-4.421-3.12-7.001-3.783-3.294-.797-6.7-1.085-10.08-1.011Z"/></svg>